<svg xmlns="http://www.w3.org/2000/svg" width="1280" height="853" viewBox="0 0 1280 853">
<g fill="#ffffff" stroke="none">
  <path d="M0 0 L0 852 L1279 852 L1279 0 Z" />
</g>
<g fill="#2e20d8" stroke="none">
  <path d="M800 719 L797 725 L797 735 L798 739 L800 741 L802 741 L802 738 L799 735 L799 725 L801 724 L803 719 Z" />
  <path d="M747 719 L749 724 L749 727 L747 729 L747 731 L749 733 L748 742 L751 742 L751 722 L750 719 Z" />
  <path d="M702 719 L698 727 L699 737 L707 744 L714 744 L714 742 L706 742 L701 737 L703 730 L701 723 L705 721 L705 719 Z" />
  <path d="M687 719 L683 719 L688 728 L687 736 L683 741 L676 742 L676 744 L682 744 L683 741 L687 741 L689 734 L691 733 L691 727 L689 726 Z" />
  <path d="M1163 718 L1163 735 L1161 736 L1160 740 L1162 740 L1163 742 L1166 742 L1166 718 Z" />
  <path d="M1142 718 L1142 736 L1144 737 L1144 740 L1146 742 L1148 742 L1149 744 L1153 744 L1153 742 L1146 739 L1146 718 Z" />
  <path d="M1005 718 L1005 721 L1008 723 L1007 741 L1011 742 L1011 723 L1009 722 L1009 720 L1007 718 Z" />
  <path d="M954 718 L954 742 L957 742 L957 718 Z" />
  <path d="M943 718 L937 720 L940 725 L940 735 L937 737 L940 740 L940 749 L933 752 L921 751 L921 753 L935 754 L942 749 Z" />
  <path d="M905 718 L905 742 L908 742 L908 718 Z" />
  <path d="M631 718 L620 718 L620 742 L623 742 L624 724 L628 721 L631 721 Z" />
  <path d="M603 718 L603 721 L607 723 L607 727 L603 729 L603 731 L607 733 L605 741 L609 742 L609 723 L605 718 Z" />
  <path d="M563 718 L561 718 L560 721 L557 722 L556 725 L557 739 L559 739 L559 731 L560 730 L559 722 L563 721 Z" />
  <path d="M929 716 L923 718 L921 720 L921 723 L918 724 L918 735 L921 736 L921 739 L923 741 L925 741 L925 738 L921 736 L921 723 L926 719 L929 719 Z" />
  <path d="M451 716 L451 719 L453 719 L457 724 L457 742 L460 742 L459 720 Z" />
  <path d="M1193 710 L1193 737 L1195 738 L1196 742 L1199 742 L1198 711 Z" />
  <path d="M971 710 L971 715 L969 716 L969 721 L971 722 L971 740 L976 742 L974 739 L974 710 Z" />
  <path d="M646 710 L646 715 L644 716 L644 721 L646 722 L646 739 L648 742 L651 742 L651 740 L648 739 L648 710 Z" />
  <path d="M1050 706 L1050 742 L1055 727 L1064 728 L1073 741 L1068 727 L1075 719 L1075 713 L1068 706 Z" />
  <path d="M864 706 L864 742 L870 742 L871 708 L887 710 L893 718 L890 736 L881 740 L888 741 L895 731 L892 710 Z" />
  <path d="M542 706 L542 721 L539 723 L539 726 L542 727 L542 742 L545 742 L545 706 Z" />
  <path d="M515 706 L515 742 L518 742 L518 706 Z" />
  <path d="M401 706 L414 710 L414 742 L417 742 L417 710 L430 706 Z" />
  <path d="M1177 705 L1177 742 L1180 742 L1180 705 Z" />
  <path d="M1022 705 L1022 742 L1025 742 L1025 705 Z" />
  <path d="M838 705 L834 707 L834 715 L832 716 L832 721 L834 722 L834 742 L837 742 Z" />
  <path d="M666 705 L666 742 L671 741 L669 736 L669 724 L673 719 L669 718 L669 705 Z" />
  <path d="M438 705 L438 742 L440 742 L440 728 L444 720 L440 718 L440 705 Z" />
  <path d="M1094 586 L1094 664 L1107 664 L1109 609 L1149 662 L1164 664 L1164 586 L1151 586 L1149 640 L1107 586 Z" />
  <path d="M991 587 L969 613 L969 639 L987 662 L1004 667 L1032 662 L1052 636 L1047 602 L1030 587 Z" />
  <path d="M917 585 L914 586 L914 664 L927 664 L927 586 Z" />
  <path d="M813 585 L812 598 L835 599 L835 660 L848 664 L848 601 L872 598 L872 586 Z" />
  <path d="M706 586 L713 657 L735 667 L759 662 L773 639 L773 586 L760 586 L760 637 L746 654 L721 645 L719 586 Z" />
  <path d="M620 585 L619 664 L669 664 L669 652 L632 650 L632 586 Z" />
  <path d="M515 588 L496 613 L498 644 L507 657 L525 666 L559 662 L578 635 L572 601 L552 586 Z" />
  <path d="M416 586 L402 599 L402 616 L439 633 L445 646 L431 655 L405 647 L400 657 L439 666 L456 654 L458 634 L416 613 L415 602 L450 601 L455 592 Z" />
  <path d="M1236 583 L1216 588 L1206 602 L1211 621 L1250 640 L1242 654 L1210 647 L1205 657 L1228 667 L1254 662 L1264 648 L1258 628 L1221 610 L1228 596 L1258 599 L1256 588 Z" />
  <path d="M1272 536 L1215 453 L1218 428 L1169 430 L1172 452 L1114 540 L1150 539 L1191 479 L1233 537 Z" />
  <path d="M1068 422 L1045 428 L1046 540 L1080 539 L1079 427 Z" />
  <path d="M355 549 L300 400 L252 514 L217 468 L189 512 L128 517 L197 531 L221 502 L253 558 L296 448 L326 580 Z" />
  <path d="M841 390 L841 540 L874 540 L875 423 L960 539 L997 539 L997 415 L968 414 L960 485 L910 415 Z" />
  <path d="M681 376 L681 540 L802 539 L801 513 L715 511 L717 466 L789 464 L789 439 L717 439 L715 394 L789 392 Z" />
  <path d="M511 369 L509 393 L594 398 L505 539 L642 540 L642 513 L551 512 L627 386 Z" />
  <path d="M382 326 L318 342 L363 443 L423 416 Z" />
  <path d="M272 108 L187 129 L9 534 L70 532 L199 375 L198 339 L156 359 L239 183 L283 270 L345 256 Z" />
</g>
<g fill="#3041e4" stroke="none">
  <path d="M426 422 L365 444 L392 511 L351 514 L351 545 L363 532 L471 525 Z" />
  <path d="M843 368 L845 394 L860 397 L866 406 L889 402 L903 417 L899 403 L889 398 L889 387 L874 368 Z" />
  <path d="M683 368 L683 375 L696 375 L699 385 L716 379 L721 383 L716 388 L799 391 L799 368 Z" />
  <path d="M568 368 L574 377 L587 370 L583 379 L601 380 L602 385 L623 393 L627 385 L629 394 L637 389 L641 373 L638 368 Z" />
  <path d="M1119 366 L1158 429 L1208 434 L1228 426 L1268 371 L1233 366 L1192 422 L1158 369 Z" />
  <path d="M1048 366 L1046 420 L1068 421 L1071 427 L1077 426 L1080 367 Z" />
  <path d="M995 368 L964 366 L964 426 L966 414 L980 408 L985 413 L995 409 Z" />
  <path d="M196 350 L391 299 L1268 281 L387 275 Z" />
</g>
</svg>